<svg xmlns="http://www.w3.org/2000/svg" width="24" height="24" fill="none" viewBox="0 0 24 24" id="minimize-screen">
  <path fill="#000" d="M13.9142 11.2071H18.9142C19.4665 11.2071 19.9142 10.7594 19.9142 10.2071 19.9142 9.65482 19.4665 9.20711 18.9142 9.20711L16.3284 9.20711 21.9142 3.62132C22.3047 3.2308 22.3047 2.59763 21.9142 2.20711 21.5237 1.81658 20.8905 1.81658 20.5 2.20711L14.9142 7.79289 14.9142 5.20711C14.9142 4.65482 14.4665 4.20711 13.9142 4.20711 13.3619 4.20711 12.9142 4.65482 12.9142 5.20711L12.9142 10.2071C12.9142 10.7594 13.3619 11.2071 13.9142 11.2071zM10.2071 12.9142H5.20708C4.65479 12.9142 4.20708 13.3619 4.20708 13.9142 4.20708 14.4665 4.65479 14.9142 5.20708 14.9142H7.79286L2.20708 20.5C1.81655 20.8905 1.81655 21.5237 2.20708 21.9142 2.5976 22.3047 3.23077 22.3047 3.62129 21.9142L9.20708 16.3284 9.20708 18.9142C9.20708 19.4665 9.65479 19.9142 10.2071 19.9142 10.7594 19.9142 11.2071 19.4665 11.2071 18.9142V13.9142C11.2071 13.3619 10.7594 12.9142 10.2071 12.9142z"></path>
</svg>
